<?xml version="1.0" standalone="no"?>
<!DOCTYPE svg PUBLIC "-//W3C//DTD SVG 20010904//EN"
 "http://www.w3.org/TR/2001/REC-SVG-20010904/DTD/svg10.dtd">
<svg version="1.0" xmlns="http://www.w3.org/2000/svg"
 width="2000.000000pt" height="1500.000000pt" viewBox="0 0 2000.000000 1500.000000"
 preserveAspectRatio="xMidYMid meet">

<g transform="translate(0.000000,1500.000000) scale(0.100000,-0.100000)"
fill="#000000" stroke="none">
<path d="M10355 12123 c-77 -28 -135 -66 -192 -125 -91 -97 -128 -199 -121
-338 3 -73 9 -97 40 -162 61 -128 171 -218 306 -250 l52 -13 0 -268 c0 -241 2
-269 16 -263 9 3 33 6 55 6 l39 0 0 263 0 262 53 13 c245 58 396 311 331 557
-32 124 -122 233 -243 293 -70 34 -81 37 -180 40 -82 2 -117 -2 -156 -15z
m292 -124 c64 -31 129 -98 161 -167 23 -49 27 -70 27 -147 0 -80 -3 -97 -29
-148 -55 -107 -167 -184 -286 -194 -46 -4 -76 0 -132 18 -62 19 -82 32 -134
83 -82 82 -108 148 -102 261 6 97 33 161 98 225 104 105 266 133 397 69z"/>
<path d="M8035 11420 c-231 -36 -396 -240 -383 -473 5 -86 33 -176 69 -221 19
-24 27 -26 91 -26 l70 0 -37 41 c-62 69 -80 120 -80 229 0 79 4 103 24 142
104 212 371 270 543 118 170 -149 152 -421 -36 -547 -26 -18 -47 -33 -45 -34
2 0 35 -8 72 -18 l68 -18 49 54 c54 59 96 139 106 202 l7 41 498 0 499 0 -2
-236 -3 -235 -60 -24 c-75 -30 -155 -111 -179 -181 -20 -59 -21 -163 -1 -210
27 -66 103 -153 158 -181 152 -77 337 -15 416 140 30 58 34 76 34 140 0 88
-30 163 -88 222 -36 35 -124 85 -152 85 -10 0 -13 61 -13 274 0 246 -2 276
-17 295 -18 21 -22 21 -552 24 l-534 2 -12 50 c-53 226 -282 381 -510 345z"/>
<path d="M5580 7505 l0 -2665 320 0 320 0 0 1145 0 1145 623 0 622 -1 575
-1144 575 -1145 363 0 363 0 -44 83 c-91 168 -1166 2243 -1169 2255 -2 9 32
24 102 46 296 92 505 232 666 445 216 287 313 677 283 1140 -36 580 -275 985
-704 1195 -134 66 -260 107 -425 137 l-125 23 -1172 4 -1173 3 0 -2666z m2208
2095 c67 -5 150 -17 185 -26 258 -66 433 -238 503 -494 26 -95 33 -675 10
-808 -57 -331 -274 -534 -619 -581 -50 -7 -361 -11 -863 -11 l-784 0 0 965 0
965 723 0 c397 0 777 -5 845 -10z"/>
<path d="M6750 8925 l0 -145 436 -2 436 -3 15 -45 c40 -120 160 -210 278 -210
l45 0 0 203 c0 111 -5 218 -10 238 -17 62 -65 91 -176 105 l-51 6 -37 -48
c-21 -27 -42 -68 -49 -91 l-11 -43 -418 0 -418 0 0 90 c0 83 -1 90 -20 90 -19
0 -20 -7 -20 -145z"/>
<path d="M6750 8337 c0 -54 0 -55 34 -61 19 -4 55 -18 81 -31 37 -20 60 -25
123 -25 l76 0 -44 46 c-50 51 -163 110 -227 120 l-43 7 0 -56z"/>
<path d="M7845 8240 c-13 -5 -14 -9 -5 -9 8 0 24 4 35 9 13 5 14 9 5 9 -8 0
-24 -4 -35 -9z"/>
<path d="M10460 7505 l0 -2665 320 0 320 0 0 888 0 889 379 421 380 422 114
-168 c62 -92 461 -681 886 -1309 l772 -1143 395 0 c314 0 394 3 388 13 -6 9
-1977 2840 -2095 3008 l-18 26 990 1138 c544 626 989 1139 989 1141 0 2 -175
4 -389 4 l-389 0 -779 -922 c-428 -507 -961 -1143 -1184 -1413 -223 -269 -413
-491 -422 -493 -16 -3 -17 96 -17 1412 l0 1416 -320 0 -320 0 0 -2665z"/>
<path d="M9550 9604 c0 -3 16 -49 35 -100 42 -113 88 -297 112 -454 26 -165
25 -617 -1 -780 -90 -572 -347 -1010 -763 -1300 -35 -24 -63 -49 -63 -54 0 -6
179 -355 398 -776 l397 -765 130 0 130 0 3 2118 2 2117 -190 0 c-104 0 -190
-3 -190 -6z"/>
<path d="M11840 9048 c-30 -31 -56 -68 -47 -68 2 0 23 23 46 50 48 57 49 66 1
18z"/>
<path d="M13395 8328 l-38 -42 24 -9 c119 -48 172 -91 220 -179 32 -59 34 -69
34 -158 0 -76 -4 -104 -21 -141 -75 -161 -261 -246 -421 -190 -29 10 -53 15
-53 12 1 -3 23 -36 51 -73 48 -66 51 -68 93 -68 260 0 465 204 466 462 0 124
-49 237 -142 325 -49 45 -141 103 -167 103 -5 0 -26 -19 -46 -42z"/>
<path d="M13522 7070 l33 -49 195 -3 195 -3 5 -281 5 -282 55 -81 c30 -44 62
-81 71 -81 9 0 43 -14 77 -30 115 -58 180 -161 191 -304 5 -70 11 -88 40 -129
18 -27 35 -46 38 -43 11 11 33 123 33 171 0 61 -22 150 -51 207 -53 103 -200
215 -308 233 l-41 7 0 343 c0 299 -2 346 -16 359 -13 14 -53 16 -285 16 l-269
0 32 -50z"/>
<path d="M6909 6586 c-25 -6 -70 -26 -100 -43 l-54 -30 -3 -82 -3 -81 44 43
c91 92 226 127 344 89 l62 -20 -35 69 -34 69 -88 -1 c-48 0 -108 -6 -133 -13z"/>
<path d="M11851 6378 c-66 -65 -96 -136 -96 -228 1 -96 34 -169 106 -234 59
-53 121 -76 205 -76 66 0 162 29 184 55 9 11 -23 65 -161 269 -95 141 -178
256 -184 256 -6 0 -31 -19 -54 -42z"/>
<path d="M7381 6080 c-2 -34 -62 -138 -102 -177 -138 -132 -344 -130 -481 5
l-48 46 0 -76 c0 -75 1 -78 33 -102 80 -61 209 -91 321 -75 126 17 242 90 311
194 l38 58 -36 71 c-20 39 -36 64 -36 56z"/>
<path d="M11780 4493 c-54 -9 -127 -37 -172 -65 -99 -62 -188 -188 -204 -287
l-7 -41 -498 0 -499 0 0 104 0 104 -29 5 c-16 3 -40 9 -55 13 l-26 6 0 -143
c0 -96 5 -152 13 -169 l13 -25 539 -5 538 -5 12 -50 c52 -222 278 -378 500
-345 109 16 184 52 259 126 181 177 181 474 0 650 -99 97 -255 149 -384 127z
m205 -137 c121 -55 194 -161 203 -290 6 -92 -15 -164 -66 -231 -71 -94 -164
-139 -282 -138 -128 1 -245 74 -306 193 -26 49 -29 65 -29 150 0 79 4 103 23
141 88 178 286 253 457 175z"/>
<path d="M9443 4317 l-43 -10 0 -268 c0 -261 -1 -269 -20 -269 -35 0 -134 -42
-186 -79 -157 -110 -227 -301 -179 -486 32 -124 132 -241 255 -299 61 -29 72
-31 185 -31 114 0 123 2 188 32 76 36 166 116 204 181 113 193 69 450 -101
585 -58 46 -138 84 -196 93 l-40 7 0 278 c0 217 -3 279 -12 278 -7 -1 -32 -6
-55 -12z m160 -682 c73 -34 149 -117 177 -193 29 -77 25 -195 -10 -267 -34
-72 -116 -149 -186 -175 -242 -90 -490 94 -472 350 17 238 275 388 491 285z"/>
</g>
</svg>
